# xmcd
#
# Track frame offsets: 
#        150
#        17948
#        34840
#        52541
#        70232
#        85951
#        106412
#        128801
#        152402
#        172193
#        193026
#        215196
#
# Disc length: 3103 seconds
#
# Revision: 4
# Processed by: cddbd v1.5.2PL0 Copyright (c) Steve Scherf et al.
# Submitted via: ExactAudioCopyFreeDBPlugin 1.0
#
DISCID=a40c1d0c
DTITLE=Ray Charles - Genius Loves Company
DYEAR=2004
DGENRE=R&B
TTITLE0=Here We Go Again (Norah Jones)
TTITLE1=Sweet Potato Pie (James Taylor)
TTITLE2=You Don't Know Me (Diana Krall)
TTITLE3=Sorry Seems To Be The Hardest Word (Elton John)
TTITLE4=Fever (Natalie Cole)
TTITLE5=Do I Ever Cross Your Mind (Bonnie Raitt)
TTITLE6=It Was A Very Good Year (Willie Nelson)
TTITLE7=Hey Girl (Michael McDonald)
TTITLE8=Sinner's Prayer (B.B. King)
TTITLE9=Heaven Help Us All (Gladys Knight)
TTITLE10=Over The Rainbow (Johnny Mathis)
TTITLE11=Crazy Love (Van Morrison)
EXTD=YEAR: 2004
EXTT0=
EXTT1=
EXTT2=
EXTT3=
EXTT4=
EXTT5=
EXTT6=
EXTT7=
EXTT8=
EXTT9=
EXTT10=
EXTT11=
PLAYORDER=
